# xmcd
#
# Track frame offsets: 
#        150
#        9752
#        25887
#        43717
#        56160
#        68915
#        84295
#        96555
#        113257
#        133355
#        142510
#        149210
#        163350
#        178662
#
# Disc length: 2617 seconds
#
# Revision: 2
# Processed by: cddbd v1.5.2PL0 Copyright (c) Steve Scherf et al.
# Submitted via: ExactAudioCopy v0.99pb5
#
DISCID=c30a370e
DTITLE=Drag The River - Closed.
DYEAR=2002
DGENRE=Indie
TTITLE0=Embrace The Sound
TTITLE1=Medicine
TTITLE2=Forgiveness
TTITLE3=Losin' Everyone
TTITLE4=So Lonely
TTITLE5=Song For Robin Reichhardt
TTITLE6=Barroom Bliss
TTITLE7=Disclaimer (Pts. 2 and 1)
TTITLE8=Booze n' Pills
TTITLE9=Calloused Heart #2
TTITLE10=Get Drunk
TTITLE11=Lost Weekend
TTITLE12=Life of Ruin
TTITLE13=Smokefinger
EXTD=
EXTT0=
EXTT1=
EXTT2=
EXTT3=
EXTT4=
EXTT5=
EXTT6=
EXTT7=
EXTT8=
EXTT9=
EXTT10=
EXTT11=
EXTT12=
EXTT13=
PLAYORDER=
